<svg width="109" height="23" viewBox="0 0 109 23" fill="none" xmlns="http://www.w3.org/2000/svg">
<path d="M20.7344 8.70924C20.7344 15.6852 11.1272 21.3318 10.718 21.565C10.6102 21.6274 10.4897 21.6601 10.3672 21.6601C10.2448 21.6601 10.1242 21.6274 10.0164 21.565C9.60726 21.3318 0 15.6852 0 8.70924C0.00171498 7.07111 0.606908 5.5006 1.68281 4.34226C2.7587 3.18393 4.21744 2.53236 5.73899 2.53052C7.65045 2.53052 9.32401 3.41547 10.3672 4.91132C11.4104 3.41547 13.084 2.53052 14.9954 2.53052C16.517 2.53236 17.9757 3.18393 19.0516 4.34226C20.1275 5.5006 20.7327 7.07111 20.7344 8.70924Z" fill="#48D962"/>
<circle cx="20.245" cy="4.9256" r="4.27176" fill="#FA2E2E" stroke="#02231A" stroke-width="1.3077"/>
<path d="M27.6312 18.447V5.01277H30.0649V16.407H35.9817V18.447H27.6312ZM42.384 18.6438C41.4 18.6438 40.5473 18.4273 39.8257 17.9944C39.1041 17.5615 38.5444 16.9558 38.1464 16.1774C37.7528 15.399 37.556 14.4893 37.556 13.4485C37.556 12.4077 37.7528 11.4959 38.1464 10.7131C38.5444 9.93035 39.1041 9.32249 39.8257 8.88955C40.5473 8.45661 41.4 8.24014 42.384 8.24014C43.3679 8.24014 44.2207 8.45661 44.9422 8.88955C45.6638 9.32249 46.2214 9.93035 46.615 10.7131C47.0129 11.4959 47.2119 12.4077 47.2119 13.4485C47.2119 14.4893 47.0129 15.399 46.615 16.1774C46.2214 16.9558 45.6638 17.5615 44.9422 17.9944C44.2207 18.4273 43.3679 18.6438 42.384 18.6438ZM42.3971 16.7415C42.9306 16.7415 43.3767 16.595 43.7353 16.302C44.0939 16.0046 44.3606 15.6067 44.5355 15.1081C44.7148 14.6096 44.8045 14.0542 44.8045 13.442C44.8045 12.8254 44.7148 12.2678 44.5355 11.7693C44.3606 11.2663 44.0939 10.8662 43.7353 10.5688C43.3767 10.2715 42.9306 10.1228 42.3971 10.1228C41.8504 10.1228 41.3956 10.2715 41.0327 10.5688C40.6741 10.8662 40.4051 11.2663 40.2258 11.7693C40.0509 12.2678 39.9634 12.8254 39.9634 13.442C39.9634 14.0542 40.0509 14.6096 40.2258 15.1081C40.4051 15.6067 40.6741 16.0046 41.0327 16.302C41.3956 16.595 41.8504 16.7415 42.3971 16.7415ZM57.8845 8.37133L54.2964 18.447H51.6725L48.0843 8.37133H50.6164L52.932 15.8559H53.0369L55.359 8.37133H57.8845ZM63.6456 18.6438C62.6354 18.6438 61.7629 18.4339 61.0283 18.0141C60.2979 17.5899 59.736 16.9908 59.3424 16.2167C58.9488 15.4383 58.752 14.5221 58.752 13.4682C58.752 12.4318 58.9488 11.5222 59.3424 10.7394C59.7404 9.95222 60.2958 9.33998 61.0086 8.90267C61.7214 8.46098 62.5589 8.24014 63.5209 8.24014C64.1419 8.24014 64.7279 8.34072 65.2789 8.54188C65.8343 8.73867 66.3241 9.04479 66.7483 9.46024C67.1769 9.87569 67.5136 10.4048 67.7585 11.0477C68.0034 11.6862 68.1258 12.4471 68.1258 13.3305V14.0586H59.8672V12.458H65.8496C65.8453 12.0032 65.7469 11.5987 65.5544 11.2445C65.362 10.8859 65.0931 10.6038 64.7476 10.3983C64.4065 10.1927 64.0085 10.09 63.5537 10.09C63.0683 10.09 62.6419 10.208 62.2746 10.4442C61.9073 10.676 61.6208 10.9821 61.4153 11.3626C61.2141 11.7386 61.1113 12.1519 61.107 12.6023V13.9995C61.107 14.5855 61.2141 15.0885 61.4284 15.5083C61.6427 15.9237 61.9422 16.243 62.3271 16.466C62.7119 16.6847 63.1623 16.794 63.6784 16.794C64.0239 16.794 64.3365 16.7459 64.6164 16.6497C64.8963 16.5491 65.139 16.4026 65.3445 16.2102C65.5501 16.0177 65.7053 15.7794 65.8103 15.4952L68.0275 15.7444C67.8875 16.3304 67.6208 16.8421 67.2272 17.2794C66.838 17.7123 66.3394 18.0491 65.7316 18.2896C65.1237 18.5257 64.4284 18.6438 63.6456 18.6438ZM70.1348 22.2254V8.37133H72.47V10.0375H72.6078C72.7302 9.7926 72.9029 9.5324 73.126 9.25689C73.349 8.97701 73.6507 8.73867 74.0312 8.54188C74.4117 8.34072 74.8971 8.24014 75.4875 8.24014C76.2659 8.24014 76.9678 8.43912 77.5931 8.83707C78.2229 9.23065 78.7214 9.81446 79.0887 10.5885C79.4605 11.3582 79.6463 12.3028 79.6463 13.4223C79.6463 14.5287 79.4648 15.4689 79.1019 16.243C78.7389 17.017 78.2447 17.6074 77.6194 18.0141C76.994 18.4208 76.2856 18.6241 75.494 18.6241C74.9168 18.6241 74.4379 18.5279 74.0574 18.3355C73.677 18.1431 73.3709 17.9113 73.1391 17.6402C72.9117 17.3647 72.7346 17.1045 72.6078 16.8596H72.5094V22.2254H70.1348ZM72.4634 13.4092C72.4634 14.0608 72.5553 14.6315 72.739 15.1213C72.927 15.611 73.1959 15.9937 73.5458 16.2692C73.9 16.5403 74.3286 16.6759 74.8315 16.6759C75.3563 16.6759 75.7958 16.536 76.15 16.2561C76.5042 15.9718 76.771 15.5848 76.9503 15.095C77.1339 14.6009 77.2258 14.0389 77.2258 13.4092C77.2258 12.7838 77.1361 12.2284 76.9568 11.743C76.7775 11.2576 76.5108 10.8771 76.1566 10.6016C75.8023 10.3261 75.3606 10.1884 74.8315 10.1884C74.3242 10.1884 73.8935 10.3217 73.5392 10.5885C73.185 10.8553 72.9161 11.2292 72.7324 11.7102C72.5531 12.1913 72.4634 12.7576 72.4634 13.4092ZM81.6798 18.447V8.37133H84.0544V18.447H81.6798ZM82.8737 6.94132C82.4976 6.94132 82.174 6.81668 81.9028 6.56742C81.6317 6.31377 81.4961 6.00984 81.4961 5.65562C81.4961 5.29702 81.6317 4.99309 81.9028 4.74382C82.174 4.49018 82.4976 4.36336 82.8737 4.36336C83.2541 4.36336 83.5778 4.49018 83.8445 4.74382C84.1156 4.99309 84.2512 5.29702 84.2512 5.65562C84.2512 6.00984 84.1156 6.31377 83.8445 6.56742C83.5778 6.81668 83.2541 6.94132 82.8737 6.94132ZM88.8709 12.5433V18.447H86.4963V8.37133H88.7659V10.0834H88.884C89.1158 9.51928 89.4853 9.07103 89.9926 8.73867C90.5042 8.40632 91.1362 8.24014 91.8883 8.24014C92.5837 8.24014 93.1893 8.38882 93.7054 8.6862C94.2258 8.98357 94.6281 9.41432 94.9124 9.97846C95.201 10.5426 95.3431 11.227 95.3387 12.0316V18.447H92.9641V12.399C92.9641 11.7255 92.7892 11.1986 92.4394 10.8181C92.0939 10.4376 91.615 10.2474 91.0028 10.2474C90.5873 10.2474 90.2178 10.3392 89.8942 10.5229C89.575 10.7022 89.3235 10.9624 89.1398 11.3035C88.9605 11.6446 88.8709 12.0579 88.8709 12.5433ZM102.135 22.4353C101.282 22.4353 100.549 22.3194 99.9371 22.0877C99.3248 21.8602 98.8329 21.5541 98.4612 21.1693C98.0894 20.7845 97.8314 20.3581 97.6871 19.8902L99.8256 19.3719C99.9218 19.5687 100.062 19.7633 100.245 19.9558C100.429 20.1525 100.676 20.3143 100.987 20.4412C101.301 20.5724 101.697 20.638 102.174 20.638C102.847 20.638 103.405 20.474 103.847 20.146C104.288 19.8224 104.509 19.2888 104.509 18.5454V16.6365H104.391C104.269 16.8814 104.089 17.1329 103.853 17.3909C103.621 17.6489 103.313 17.8654 102.928 18.0403C102.548 18.2152 102.069 18.3027 101.492 18.3027C100.718 18.3027 100.016 18.1212 99.3861 17.7583C98.7607 17.3909 98.2622 16.8443 97.8905 16.1183C97.5231 15.388 97.3394 14.474 97.3394 13.3764C97.3394 12.27 97.5231 11.3363 97.8905 10.5754C98.2622 9.81009 98.7629 9.23065 99.3926 8.83707C100.022 8.43912 100.724 8.24014 101.498 8.24014C102.089 8.24014 102.574 8.34072 102.955 8.54188C103.339 8.73867 103.645 8.97701 103.873 9.25689C104.1 9.5324 104.273 9.7926 104.391 10.0375H104.522V8.37133H106.864V18.611C106.864 19.4725 106.659 20.1853 106.248 20.7495C105.836 21.3136 105.274 21.7356 104.562 22.0155C103.849 22.2954 103.04 22.4353 102.135 22.4353ZM102.154 16.4398C102.657 16.4398 103.086 16.3173 103.44 16.0724C103.794 15.8275 104.063 15.4755 104.247 15.0163C104.43 14.5571 104.522 14.0061 104.522 13.3633C104.522 12.7292 104.43 12.1738 104.247 11.6971C104.068 11.2204 103.801 10.8509 103.447 10.5885C103.097 10.3217 102.666 10.1884 102.154 10.1884C101.625 10.1884 101.183 10.3261 100.829 10.6016C100.475 10.8771 100.208 11.2554 100.029 11.7365C99.8496 12.2131 99.76 12.7554 99.76 13.3633C99.76 13.9799 99.8496 14.52 100.029 14.9835C100.213 15.4427 100.482 15.8013 100.836 16.0593C101.194 16.3129 101.634 16.4398 102.154 16.4398Z" fill="#48D962"/>
</svg>
