<svg width="17" height="17" viewBox="0 0 17 17" fill="none" xmlns="http://www.w3.org/2000/svg">
<path d="M12.6497 8.26288L9.34741 7.0426L8.13096 3.73771C8.05893 3.54201 7.9286 3.37311 7.75755 3.25381C7.58651 3.13451 7.38299 3.07054 7.17445 3.07054C6.96591 3.07054 6.76239 3.13451 6.59135 3.25381C6.42031 3.37311 6.28998 3.54201 6.21794 3.73771L4.99381 7.0426L1.68893 8.25904C1.49322 8.33108 1.32433 8.46141 1.20503 8.63245C1.08573 8.80349 1.02176 9.00702 1.02176 9.21555C1.02176 9.42409 1.08573 9.62761 1.20503 9.79865C1.32433 9.9697 1.49322 10.1 1.68893 10.1721L4.99381 11.3962L6.21026 14.7011C6.2823 14.8968 6.41263 15.0657 6.58367 15.185C6.75471 15.3043 6.95823 15.3682 7.16677 15.3682C7.37531 15.3682 7.57883 15.3043 7.74987 15.185C7.92091 15.0657 8.05124 14.8968 8.12328 14.7011L9.34741 11.3962L12.6523 10.1797C12.848 10.1077 13.0169 9.97738 13.1362 9.80634C13.2555 9.63529 13.3195 9.43177 13.3195 9.22324C13.3195 9.0147 13.2555 8.81118 13.1362 8.64014C13.0169 8.46909 12.848 8.33876 12.6523 8.26673L12.6497 8.26288ZM8.7712 10.5139C8.70167 10.5396 8.63854 10.58 8.58614 10.6324C8.53375 10.6848 8.49335 10.7479 8.46773 10.8174L7.17061 14.3317L5.87606 10.82C5.85048 10.7497 5.80982 10.6859 5.75695 10.6331C5.70408 10.5802 5.64028 10.5395 5.57003 10.5139L2.05834 9.21939L5.57003 7.92484C5.64028 7.89926 5.70408 7.85861 5.75695 7.80574C5.80982 7.75287 5.85048 7.68906 5.87606 7.61881L7.17061 4.10712L8.46517 7.61881C8.49079 7.68833 8.53119 7.75147 8.58358 7.80386C8.63598 7.85626 8.69911 7.89666 8.76864 7.92228L12.2829 9.21939L8.7712 10.5139ZM9.21936 2.56096C9.21936 2.42512 9.27332 2.29484 9.36938 2.19879C9.46543 2.10273 9.59571 2.04877 9.73155 2.04877H10.7559V1.02439C10.7559 0.888554 10.8099 0.758277 10.9059 0.662223C11.002 0.566169 11.1323 0.512207 11.2681 0.512207C11.404 0.512207 11.5342 0.566169 11.6303 0.662223C11.7263 0.758277 11.7803 0.888554 11.7803 1.02439V2.04877H12.8047C12.9405 2.04877 13.0708 2.10273 13.1668 2.19879C13.2629 2.29484 13.3169 2.42512 13.3169 2.56096C13.3169 2.6968 13.2629 2.82707 13.1668 2.92313C13.0708 3.01918 12.9405 3.07314 12.8047 3.07314H11.7803V4.09752C11.7803 4.23336 11.7263 4.36364 11.6303 4.45969C11.5342 4.55574 11.404 4.60971 11.2681 4.60971C11.1323 4.60971 11.002 4.55574 10.9059 4.45969C10.8099 4.36364 10.7559 4.23336 10.7559 4.09752V3.07314H9.73155C9.59571 3.07314 9.46543 3.01918 9.36938 2.92313C9.27332 2.82707 9.21936 2.6968 9.21936 2.56096ZM15.8778 5.63408C15.8778 5.76992 15.8238 5.9002 15.7278 5.99625C15.6317 6.09231 15.5015 6.14627 15.3656 6.14627H14.8534V6.65846C14.8534 6.7943 14.7995 6.92457 14.7034 7.02063C14.6074 7.11668 14.4771 7.17064 14.3412 7.17064C14.2054 7.17064 14.0751 7.11668 13.9791 7.02063C13.883 6.92457 13.829 6.7943 13.829 6.65846V6.14627H13.3169C13.181 6.14627 13.0507 6.09231 12.9547 5.99625C12.8586 5.9002 12.8047 5.76992 12.8047 5.63408C12.8047 5.49824 12.8586 5.36796 12.9547 5.27191C13.0507 5.17586 13.181 5.12189 13.3169 5.12189H13.829V4.60971C13.829 4.47387 13.883 4.34359 13.9791 4.24754C14.0751 4.15148 14.2054 4.09752 14.3412 4.09752C14.4771 4.09752 14.6074 4.15148 14.7034 4.24754C14.7995 4.34359 14.8534 4.47387 14.8534 4.60971V5.12189H15.3656C15.5015 5.12189 15.6317 5.17586 15.7278 5.27191C15.8238 5.36796 15.8778 5.49824 15.8778 5.63408Z" fill="#48D962"/>
</svg>
