<svg width="17" height="17" viewBox="0 0 17 17" fill="none" xmlns="http://www.w3.org/2000/svg">
<path d="M13.8282 4.6094H11.5824C11.6073 4.58827 11.633 4.56779 11.6573 4.54538C11.8517 4.37264 12.0084 4.16164 12.1176 3.92558C12.2267 3.68952 12.286 3.43347 12.2917 3.17345C12.3001 2.889 12.2503 2.60583 12.1453 2.34132C12.0403 2.07682 11.8824 1.83656 11.6812 1.63531C11.48 1.43405 11.2398 1.27604 10.9753 1.17097C10.7108 1.06591 10.4277 1.01601 10.1432 1.02433C9.8831 1.02993 9.62693 1.08917 9.39075 1.19834C9.15457 1.30751 8.94347 1.46425 8.77066 1.65876C8.53153 1.9359 8.33714 2.24866 8.19449 2.58576C8.05183 2.24866 7.85744 1.9359 7.61831 1.65876C7.4455 1.46425 7.2344 1.30751 6.99822 1.19834C6.76204 1.08917 6.50587 1.02993 6.24574 1.02433C5.96129 1.01601 5.67813 1.06591 5.41366 1.17097C5.14919 1.27604 4.90898 1.43405 4.70778 1.63531C4.50658 1.83656 4.34864 2.07682 4.24366 2.34132C4.13867 2.60583 4.08885 2.889 4.09726 3.17345C4.10295 3.43347 4.16223 3.68952 4.2714 3.92558C4.38056 4.16164 4.53726 4.37264 4.73169 4.54538C4.75602 4.56651 4.78163 4.58699 4.80659 4.6094H2.5608C2.28914 4.6094 2.02861 4.71732 1.83651 4.90941C1.64442 5.10151 1.5365 5.36204 1.5365 5.63371V7.68232C1.5365 7.95398 1.64442 8.21452 1.83651 8.40661C2.02861 8.59871 2.28914 8.70662 2.5608 8.70662V12.8038C2.5608 13.0755 2.66872 13.336 2.86082 13.5281C3.05291 13.7202 3.31345 13.8282 3.58511 13.8282H12.8039C13.0755 13.8282 13.3361 13.7202 13.5282 13.5281C13.7202 13.336 13.8282 13.0755 13.8282 12.8038V8.70662C14.0998 8.70662 14.3604 8.59871 14.5525 8.40661C14.7446 8.21452 14.8525 7.95398 14.8525 7.68232V5.63371C14.8525 5.36204 14.7446 5.10151 14.5525 4.90941C14.3604 4.71732 14.0998 4.6094 13.8282 4.6094ZM9.53889 2.33736C9.61998 2.24781 9.71871 2.176 9.82888 2.12642C9.93905 2.07684 10.0583 2.05058 10.1791 2.04928H10.2104C10.352 2.05016 10.492 2.0793 10.6222 2.13498C10.7524 2.19066 10.8702 2.27177 10.9686 2.37354C11.067 2.47532 11.1442 2.59572 11.1955 2.72769C11.2468 2.85966 11.2712 3.00054 11.2674 3.14208C11.2661 3.26289 11.2398 3.38211 11.1903 3.49228C11.1407 3.60245 11.0689 3.70118 10.9793 3.78227C10.3718 4.32003 9.36347 4.50953 8.73865 4.57611C8.81547 3.89815 9.02673 2.91289 9.53889 2.33736ZM5.4359 2.36041C5.63433 2.16201 5.90305 2.04996 6.18365 2.04864H6.21501C6.33582 2.04994 6.45505 2.0762 6.56522 2.12578C6.67538 2.17536 6.77411 2.24717 6.85521 2.33672C7.39233 2.94362 7.58182 3.95 7.6484 4.57227C7.02614 4.50825 6.01976 4.31619 5.41286 3.77907C5.32331 3.69798 5.25149 3.59925 5.20191 3.48908C5.15234 3.37891 5.12607 3.25968 5.12477 3.13888C5.1208 2.99499 5.1461 2.85179 5.19915 2.71797C5.25219 2.58415 5.33187 2.46251 5.43334 2.36041H5.4359ZM2.5608 5.63371H7.68233V7.68232H2.5608V5.63371ZM3.58511 8.70662H7.68233V12.8038H3.58511V8.70662ZM12.8039 12.8038H8.70664V8.70662H12.8039V12.8038ZM13.8282 7.68232H8.70664V5.63371H13.8282V7.68232Z" fill="#D7BA38"/>
</svg>
