<svg width="25" height="21" viewBox="0 0 25 21" fill="none" xmlns="http://www.w3.org/2000/svg">
<path d="M20.3021 8.31918C20.3021 15.1497 10.8952 20.6785 10.4946 20.9069C10.389 20.968 10.271 21 10.1511 21C10.0312 21 9.91314 20.968 9.80755 20.9069C9.40695 20.6785 0 15.1497 0 8.31918C0.00167922 6.7152 0.594254 5.17744 1.64772 4.04326C2.70119 2.90907 4.12951 2.27109 5.61934 2.26929C7.49094 2.26929 9.12961 3.13579 10.1511 4.60045C11.1725 3.13579 12.8112 2.26929 14.6828 2.26929C16.1726 2.27109 17.6009 2.90907 18.6544 4.04326C19.7079 5.17744 20.3004 6.7152 20.3021 8.31918Z" fill="#48D962"/>
<circle cx="19.8229" cy="4.82291" r="4.18269" fill="#FA2E2E" stroke="#02231A" stroke-width="1.28043"/>
</svg>
