<svg width="26" height="23" viewBox="0 0 26 23" fill="none" xmlns="http://www.w3.org/2000/svg">
<path d="M20.7344 8.70924C20.7344 15.6852 11.1272 21.3318 10.718 21.565C10.6102 21.6274 10.4897 21.6601 10.3672 21.6601C10.2448 21.6601 10.1242 21.6274 10.0164 21.565C9.60726 21.3318 0 15.6852 0 8.70924C0.00171498 7.07111 0.606908 5.5006 1.68281 4.34226C2.7587 3.18393 4.21744 2.53236 5.73899 2.53052C7.65045 2.53052 9.32401 3.41547 10.3672 4.91132C11.4104 3.41547 13.084 2.53052 14.9954 2.53052C16.517 2.53236 17.9757 3.18393 19.0516 4.34226C20.1275 5.5006 20.7327 7.07111 20.7344 8.70924Z" fill="#48D962"/>
<circle cx="20.245" cy="4.9256" r="4.27176" fill="#FA2E2E" stroke="#02231A" stroke-width="1.3077"/>
</svg>